Hanif_Deep_7_5_grf.mot
version=1
nRows=37
nColumns=19
inDegrees=yes
endheader
time	right_ground_force_vx	right_ground_force_vy	right_ground_force_vz	right_ground_force_px	right_ground_force_py	right_ground_force_pz	right_ground_torque_x	right_ground_torque_y	right_ground_torque_z	left_ground_force_vx	left_ground_force_vy	left_ground_force_vz	left_ground_force_px	left_ground_force_py	left_ground_force_pz	left_ground_torque_x	left_ground_torque_y	left_ground_torque_z
6.900000	-10.673300	307.356000	34.602200	0.223625	0.000000	-1.427420	-24.211100	0.015344	7.449460	1.693280	298.838000	-33.533300	0.217406	0.000000	-1.010820	32.190900	-4.878210	5.794040
6.905000	-9.916070	305.595000	34.128900	0.222383	0.000000	-1.427490	-24.047800	0.199750	7.034770	2.664080	300.882000	-33.279000	0.217226	0.000000	-1.010360	32.255400	-5.014500	5.769300
6.910000	-9.278780	306.273000	33.324400	0.221668	0.000000	-1.428110	-23.909000	0.281792	6.824300	4.365500	305.151000	-33.424500	0.216838	0.000000	-1.009750	32.500400	-5.150900	5.712800
6.915000	-9.139660	308.611000	32.470700	0.220247	0.000000	-1.427450	-24.297000	0.536020	6.449590	5.473130	307.396000	-33.529100	0.217046	0.000000	-1.009790	32.735000	-5.251890	5.811240
6.920000	-8.395930	311.668000	31.977600	0.220119	0.000000	-1.427570	-24.500200	0.730451	6.479020	6.312300	310.277000	-34.163200	0.217389	0.000000	-1.009860	33.049200	-5.367750	5.977620
6.925000	-7.879360	313.561000	31.482800	0.219263	0.000000	-1.428740	-24.282200	0.980437	6.260490	7.793640	312.641000	-34.939100	0.217351	0.000000	-1.009680	33.221700	-5.526630	6.017160
6.930000	-7.158130	315.427000	30.730000	0.217818	0.000000	-1.428170	-24.601100	1.174560	5.842410	8.335290	314.988000	-34.759700	0.216529	0.000000	-1.009370	33.360100	-5.756620	5.807260
6.935000	-6.378250	316.346000	29.723200	0.217802	0.000000	-1.428940	-24.425900	1.354690	5.854890	8.241810	316.889000	-34.293200	0.217348	0.000000	-1.009110	33.486400	-5.658830	6.079430
6.940000	-5.988520	316.410000	29.924200	0.216066	0.000000	-1.429540	-24.236500	1.427310	5.307180	7.945810	318.635000	-33.864200	0.217595	0.000000	-1.009220	33.707400	-5.726890	6.188580
6.945000	-5.947110	317.974000	30.321200	0.214902	0.000000	-1.430380	-24.090800	1.484200	4.965800	7.796790	317.596000	-33.831100	0.217780	0.000000	-1.009540	33.702600	-5.741690	6.233960
6.950000	-5.984800	316.021000	31.383000	0.214384	0.000000	-1.431600	-23.557600	1.560230	4.789730	7.859560	319.973000	-33.411600	0.218067	0.000000	-1.008340	33.569400	-5.765420	6.359470
6.955000	-6.530350	317.843000	32.657800	0.213544	0.000000	-1.432310	-23.469600	1.443000	4.548110	8.096240	322.036000	-33.155700	0.217169	0.000000	-1.008610	33.870900	-5.883930	6.105260
6.960000	-7.508720	319.585000	32.850900	0.212432	0.000000	-1.432480	-23.550000	1.399070	4.215570	7.489470	322.923000	-32.335300	0.217562	0.000000	-1.008870	34.060000	-5.791430	6.228650
6.965000	-8.335440	321.869000	33.491500	0.211791	0.000000	-1.433990	-23.240300	1.386880	4.042950	7.593890	323.246000	-31.781700	0.217305	0.000000	-1.008360	33.922500	-5.930900	6.152190
6.970000	-8.837920	320.942000	33.726200	0.211264	0.000000	-1.434380	-23.050600	1.362070	3.864590	7.462580	325.180000	-31.695800	0.217391	0.000000	-1.008640	34.222400	-5.881610	6.205510
6.975000	-8.936950	319.392000	33.491100	0.210715	0.000000	-1.434400	-22.931900	1.304520	3.663900	6.930810	329.450000	-31.778100	0.217778	0.000000	-1.008160	34.521600	-5.991370	6.419120
6.980000	-8.283880	323.358000	33.139600	0.209642	0.000000	-1.435770	-22.768800	1.461870	3.360040	6.378430	332.543000	-31.960800	0.218254	0.000000	-1.008680	35.032600	-5.918110	6.630350
6.985000	-7.531920	325.533000	32.665700	0.209233	0.000000	-1.436050	-22.828700	1.654450	3.254910	6.113720	336.162000	-32.164500	0.217630	0.000000	-1.008320	35.296500	-6.013410	6.494650
6.990000	-6.969960	327.079000	32.610900	0.208267	0.000000	-1.435950	-22.965500	1.765440	2.955580	6.314910	338.026000	-32.352200	0.217286	0.000000	-1.007770	35.305700	-6.009710	6.408570
6.995000	-6.327080	325.704000	31.470800	0.207610	0.000000	-1.436270	-22.759500	1.856130	2.723870	6.269790	336.203000	-31.505100	0.217024	0.000000	-1.008590	35.388400	-6.162570	6.289260
7.000000	-6.058360	329.213000	30.692800	0.206674	0.000000	-1.437890	-22.470000	1.988980	2.440150	6.786530	337.312000	-31.077600	0.216898	0.000000	-1.007910	35.266800	-6.216550	6.255320
7.005000	-5.182640	326.262000	30.409200	0.206343	0.000000	-1.437380	-22.432400	2.159820	2.321850	6.117090	336.154000	-30.343400	0.216751	0.000000	-1.008170	35.240700	-6.304280	6.187960
7.010000	-5.256900	329.220000	30.219400	0.205638	0.000000	-1.438860	-22.148100	2.267140	2.112420	5.682280	335.972000	-29.283000	0.216219	0.000000	-1.007520	35.010100	-6.351230	5.992310
7.015000	-5.096510	328.829000	30.174400	0.204721	0.000000	-1.438140	-22.358400	2.358140	1.813730	5.206050	335.691000	-28.233600	0.216383	0.000000	-1.007080	34.840100	-6.427540	6.033570
7.020000	-4.478460	330.653000	29.983700	0.204285	0.000000	-1.438890	-22.227500	2.353420	1.669310	4.670050	335.566000	-28.326400	0.216138	0.000000	-1.005930	34.452500	-6.386970	5.952540
7.025000	-4.491130	327.699000	30.656600	0.203386	0.000000	-1.439250	-21.912300	2.476420	1.379030	4.542530	335.644000	-27.764300	0.215914	0.000000	-1.007050	34.836200	-6.465540	5.873650
7.030000	-5.152170	328.846000	30.453800	0.203146	0.000000	-1.440030	-21.739500	2.392960	1.296580	4.002770	337.184000	-27.977600	0.216444	0.000000	-1.006110	34.687900	-6.482910	6.086520
7.035000	-5.897960	329.539000	29.659100	0.202567	0.000000	-1.441240	-21.389900	2.354660	1.099000	3.863100	338.028000	-27.584200	0.215969	0.000000	-1.005280	34.499800	-6.506140	5.932760
7.040000	-6.365610	326.422000	29.213600	0.202416	0.000000	-1.440540	-21.423100	2.366370	1.044030	4.060130	338.642000	-27.650700	0.215056	0.000000	-1.006010	34.802600	-6.672950	5.643470
7.045000	-6.453620	327.919000	28.996700	0.201873	0.000000	-1.441170	-21.312000	2.280900	0.857569	4.835430	337.171000	-27.893500	0.215172	0.000000	-1.006210	34.701800	-6.822420	5.673600
7.050000	-6.716390	326.803000	27.840900	0.201768	0.000000	-1.441460	-21.150300	2.283620	0.813436	5.384770	338.867000	-27.812400	0.214601	0.000000	-1.005410	34.597600	-6.896560	5.502030
7.055000	-7.240650	328.061000	26.944400	0.201661	0.000000	-1.441050	-21.367200	2.211670	0.768823	5.643470	339.626000	-27.528500	0.215108	0.000000	-1.004700	34.426700	-6.982570	5.684250
7.060000	-7.461120	330.441000	26.048000	0.201191	0.000000	-1.442530	-21.032900	2.133310	0.601610	5.420170	338.466000	-27.073200	0.215044	0.000000	-1.004540	34.256700	-7.048700	5.644150
7.065000	-7.737170	327.015000	25.264300	0.200709	0.000000	-1.441970	-21.002800	2.215210	0.442587	5.838030	337.877000	-27.381400	0.214274	0.000000	-1.004550	34.190100	-7.156110	5.386370
7.070000	-7.308430	326.846000	25.058200	0.199920	0.000000	-1.442510	-20.810400	2.214010	0.178872	5.408890	340.122000	-27.943200	0.214503	0.000000	-1.004300	34.340900	-7.173790	5.510350
7.075000	-7.539770	324.549000	24.695000	0.199339	0.000000	-1.442640	-20.623200	2.125670	-0.017596	5.714050	342.984000	-28.733400	0.214165	0.000000	-1.004800	34.797200	-7.264420	5.452150
7.080000	-7.714990	326.170000	24.434800	0.199351	0.000000	-1.443470	-20.457200	2.105770	-0.019041	5.618200	343.717000	-28.383100	0.214553	0.000000	-1.004660	34.824700	-7.379560	5.598380
